<svg id="social-care" xmlns="http://www.w3.org/2000/svg"  viewBox="0 0 189.177 189.177">
  <g id="Group_544" data-name="Group 544" transform="translate(28.311 173.951)">
    <g id="Group_543" data-name="Group 543">
      <path id="Path_15" data-name="Path 15" d="M88.895,480.183l-5.563-7.835a3.695,3.695,0,1,0-6.025,4.277l5.562,7.836a3.695,3.695,0,0,0,6.026-4.278Z" transform="translate(-76.624 -470.791)"/>
    </g>
  </g>
  <g id="Group_546" data-name="Group 546" transform="translate(0 57.806)">
    <g id="Group_545" data-name="Group 545">
      <path id="Path_16" data-name="Path 16" d="M83.211,283.367l-6.054-28.852a54.414,54.414,0,0,0-23.013-34.161L41.22,211.663a13,13,0,0,0-16.481,1.682V168.824a12.369,12.369,0,0,0-20.11-9.647A12.31,12.31,0,0,0,0,168.824v57.289a35.79,35.79,0,0,0,6.641,20.828l6.589,9.282a3.695,3.695,0,0,0,6.026-4.278l-6.589-9.282a28.439,28.439,0,0,1-5.277-16.551V168.824a4.979,4.979,0,1,1,9.958,0v45.452a25.816,25.816,0,0,0,6.658,17.334c.184.221.373.439.573.651,2.454,2.6,5.339,5.664,8.056,8.552l3.8,4.048c.012.013.026.024.038.037,3.254,3.461,5.654,6.017,5.7,6.07a3.695,3.695,0,1,0,5.386-5.059c-.067-.072-4.392-4.677-9.332-9.927l-8.472-9.016c-.021-.023-.041-.047-.062-.07a6.234,6.234,0,0,1,.12-8.171A5.586,5.586,0,0,1,37.1,217.8l12.924,8.691a47.061,47.061,0,0,1,19.9,29.546l6.054,28.853a3.695,3.695,0,1,0,7.232-1.518Z" transform="translate(-0.001 -156.451)"/>
    </g>
  </g>
  <g id="Group_548" data-name="Group 548" transform="translate(20.648 163.156)">
    <g id="Group_547" data-name="Group 547">
      <path id="Path_17" data-name="Path 17" d="M62.611,443.158l-.024-.034a3.7,3.7,0,0,0-6.016,4.293l.024.033a3.695,3.695,0,1,0,6.016-4.292Z" transform="translate(-55.884 -441.575)"/>
    </g>
  </g>
  <g id="Group_550" data-name="Group 550" transform="translate(105.887 57.807)">
    <g id="Group_549" data-name="Group 549">
      <path id="Path_18" data-name="Path 18" d="M365.241,159.179a12.369,12.369,0,0,0-20.109,9.647v44.521a13,13,0,0,0-16.481-1.682l-12.925,8.691a54.412,54.412,0,0,0-23.013,34.161l-6.054,28.853a3.695,3.695,0,1,0,7.232,1.517l6.053-28.853a47.063,47.063,0,0,1,19.9-29.546l12.925-8.691a5.587,5.587,0,0,1,7.274.928,6.236,6.236,0,0,1,.128,8.163l-.07.078-17.8,18.944a3.695,3.695,0,1,0,5.386,5.059c.05-.053,15.148-16.106,17.6-18.706.2-.212.389-.43.573-.651a25.819,25.819,0,0,0,6.659-17.334V168.826a4.979,4.979,0,1,1,9.959,0v57.289a28.44,28.44,0,0,1-5.277,16.551l-27.914,39.323a3.695,3.695,0,1,0,6.025,4.278l27.915-39.323a35.793,35.793,0,0,0,6.641-20.829v-57.29A12.312,12.312,0,0,0,365.241,159.179Z" transform="translate(-286.58 -156.454)"/>
    </g>
  </g>
  <g id="Group_552" data-name="Group 552" transform="translate(34.506 19.952)">
    <g id="Group_551" data-name="Group 551">
      <path id="Path_19" data-name="Path 19" d="M200.27,104.863l-6.573-1.57v-1.179a16.526,16.526,0,0,0,7.074-13.549V80.019A16.524,16.524,0,0,0,173.5,67.451a21.574,21.574,0,0,0-39.984.03,16.523,16.523,0,0,0-27.3,12.538v8.546a16.525,16.525,0,0,0,7.074,13.549v1.179l-6.574,1.57a17.309,17.309,0,0,0-13.33,16.89v6.9a3.7,3.7,0,0,0,3.695,3.695h16.979c-.026.448-.044.9-.044,1.353v13.286a3.7,3.7,0,0,0,3.695,3.695h22.21a3.695,3.695,0,0,0,0-7.39h-3.818v-7.635a3.695,3.695,0,1,0-7.39,0v7.636h-7.307V133.7a15.3,15.3,0,0,1,11.77-14.923l10.139-2.43,6.786,15.438a3.7,3.7,0,0,0,3.382,2.208h0a3.7,3.7,0,0,0,3.382-2.208l6.779-15.415,10.107,2.415a15.3,15.3,0,0,1,11.78,14.926v9.581h-7.307v-7.636a3.695,3.695,0,1,0-7.39,0v7.636H166.65a3.695,3.695,0,1,0,0,7.39h22.58a3.7,3.7,0,0,0,3.695-3.695V133.712c0-.458-.018-.911-.045-1.363h17.027a3.7,3.7,0,0,0,3.695-3.695v-6.9A17.308,17.308,0,0,0,200.27,104.863ZM184.234,70.871a9.159,9.159,0,0,1,9.127,8.544h-5.137A26.93,26.93,0,0,1,175.836,76.4,9.159,9.159,0,0,1,184.234,70.871Zm-9.147,17.153c0-.18.014-.359.014-.54V84.194A34.323,34.323,0,0,0,188.224,86.8h5.157v1.76a9.147,9.147,0,1,1-18.294,0Zm-35.76-12.443h0a14.193,14.193,0,0,1,28.205-2.255l-6.22-3.655a3.694,3.694,0,0,0-4.7.813,15.919,15.919,0,0,1-12.231,5.708h-5.05Zm-16.569-4.71a9.16,9.16,0,0,1,8.4,5.524,26.931,26.931,0,0,1-12.388,3.019H113.63A9.159,9.159,0,0,1,122.757,70.871ZM113.61,86.8h5.157A34.324,34.324,0,0,0,131.9,84.188v4.376a9.147,9.147,0,0,1-18.294,0Zm17.847,24.787a22.66,22.66,0,0,0-15.7,13.367H100.78v-3.206a9.943,9.943,0,0,1,7.658-9.7l9.41-2.248a3.7,3.7,0,0,0,2.837-3.594v-1.242a16.047,16.047,0,0,0,4.131,0v1.054c0,.055,0,.11,0,.165a3.7,3.7,0,0,0,3,3.635l5.512,1.32Zm10.306-5.736a17.337,17.337,0,0,0-2.958-1l-6.6-1.582v-1.151a16.677,16.677,0,0,0,3.2-2.926,21.754,21.754,0,0,0,6.357,6.371Zm16.048,5.429-4.324,9.834-4.334-9.859v-2.637a21.655,21.655,0,0,0,8.658.014Zm-4.292-9.608a14.207,14.207,0,0,1-14.192-14.192v-3.9h5.05a23.281,23.281,0,0,0,15.7-6.065l7.62,4.477v6.031A14.206,14.206,0,0,1,153.519,101.677Zm11.682,4.191v-.25a21.746,21.746,0,0,0,6.409-6.387,16.67,16.67,0,0,0,3.175,2.895v1.151l-6.6,1.582A17.39,17.39,0,0,0,165.2,105.867Zm41.01,19.091H191.184a22.655,22.655,0,0,0-15.712-13.36l-1.855-.443,5.541-1.328a3.7,3.7,0,0,0,3.019-3.639c0-.029,0-.058,0-.087v-1.134a16.047,16.047,0,0,0,4.131,0v1.242a3.7,3.7,0,0,0,2.836,3.594l9.41,2.248a9.944,9.944,0,0,1,7.658,9.7Z" transform="translate(-93.39 -54)"/>
    </g>
  </g>
  <g id="Group_554" data-name="Group 554" transform="translate(90.893 109.246)">
    <g id="Group_553" data-name="Group 553">
      <path id="Path_20" data-name="Path 20" d="M252.307,296.749a3.7,3.7,0,1,0,1.083,2.616A3.725,3.725,0,0,0,252.307,296.749Z" transform="translate(-246 -295.67)"/>
    </g>
  </g>
  <g id="Group_556" data-name="Group 556" transform="translate(90.89)">
    <g id="Group_555" data-name="Group 555">
      <path id="Path_21" data-name="Path 21" d="M249.688,0a3.7,3.7,0,0,0-3.695,3.695V9.223a3.695,3.695,0,1,0,7.39,0V3.695A3.694,3.694,0,0,0,249.688,0Z" transform="translate(-245.993)"/>
    </g>
  </g>
  <g id="Group_558" data-name="Group 558" transform="translate(70.793 7.099)">
    <g id="Group_557" data-name="Group 557">
      <path id="Path_22" data-name="Path 22" d="M201.782,24.166l-3.876-3.872a3.695,3.695,0,1,0-5.223,5.227l3.876,3.872a3.695,3.695,0,1,0,5.222-5.227Z" transform="translate(-191.599 -19.213)"/>
    </g>
  </g>
  <g id="Group_560" data-name="Group 560" transform="translate(107.056 7.194)">
    <g id="Group_559" data-name="Group 559">
      <path id="Path_23" data-name="Path 23" d="M299.9,20.55a3.7,3.7,0,0,0-5.226,0l-3.846,3.85a3.695,3.695,0,1,0,5.228,5.223l3.846-3.85A3.7,3.7,0,0,0,299.9,20.55Z" transform="translate(-289.746 -19.469)"/>
    </g>
  </g>
</svg>
