<svg xmlns="http://www.w3.org/2000/svg" xmlns:xlink="http://www.w3.org/1999/xlink"  viewBox="0 0 149.538 156.678">
  <defs>
    <linearGradient id="linear-gradient" x1="1" y1="0.244" x2="1.102" y2="0.945" gradientUnits="objectBoundingBox">
      <stop offset="0" stop-color=""/>
      <stop offset="1" stop-color=""/>
    </linearGradient>
  </defs>
  <g id="subscription" transform="translate(0 0)">
    <path id="Path_7" data-name="Path 7" d="M158.909,7.626H127.694V2.3A2.3,2.3,0,0,0,125.4,0H46.38a2.3,2.3,0,0,0-2.3,2.3V7.626H13.963a2.318,2.318,0,0,0-2.3,2.3V70.146a2.3,2.3,0,0,0,2.3,2.3H44.086V89.2a2.3,2.3,0,0,0,2.3,2.3h7a8.214,8.214,0,0,0-.869,2.848L49.5,120.468a18.254,18.254,0,0,0-.119,2.21c0,5.891,3,10.743,7.33,14.474l7.641,6.578v10.653a2.3,2.3,0,0,0,2.3,2.3h7.062a2.3,2.3,0,1,0,0-4.59H68.94v-9.41a2.3,2.3,0,0,0-.8-1.739l-7.537-6.489c-3.682-3.17-6.541-6.639-6.636-11.807a13.619,13.619,0,0,1,.089-1.648l3.018-26.128A3.646,3.646,0,0,1,60.7,91.638a3.8,3.8,0,0,1,2.735,1.24,3.715,3.715,0,0,1,.913,2.407v19.348a2.3,2.3,0,1,0,4.59,0V52.445a3.647,3.647,0,0,1,7.295-.018c0,.006,0,.011,0,.017s0,.024,0,.035V81.494c0,3.506,4.614,3.5,4.609.028,0-.5,0-1.965.009-2.346.409-4.669,8.236-4.558,8.236.239v3.477c0,2.96,4.59,2.96,4.59,0a3.657,3.657,0,0,1,3.653-3.653c2.281,0,4.592.989,4.592,3.653v2.261c0,2.93,4.538,2.979,4.59.04a3.292,3.292,0,0,1,.117-.938,3.735,3.735,0,0,1,7.174-.018l2.832,10.907a46.191,46.191,0,0,1-.239,24.06l-6.416,22.851a2.285,2.285,0,0,0-.085.62v9.41h-25.2a2.3,2.3,0,0,0,0,4.59h27.5a2.3,2.3,0,0,0,2.3-2.3V142.994l6.331-22.547a50.784,50.784,0,0,0,.263-26.454l-.649-2.5H125.4a2.3,2.3,0,0,0,2.3-2.3V21.525h28.92V67.85H136.19a2.3,2.3,0,0,0,0,4.59h22.72a2.3,2.3,0,0,0,2.3-2.3V9.922h0a2.3,2.3,0,0,0-2.3-2.3ZM16.258,12.217H44.086v4.718H16.258ZM48.677,4.591H123.1V16.935H48.677ZM16.258,67.85V21.525H44.086V67.85ZM119.238,86.9l-.991-3.818a8.392,8.392,0,0,0-12.98-4.557c-2.511-4.008-8.4-5.109-12.352-2.593-2.048-4.4-7.831-6.035-12.09-3.893v-17.3H101.7a2.226,2.226,0,0,1,2.222,2.225v4.409a2.224,2.224,0,0,1-2.222,2.222H89.141a2.3,2.3,0,0,0,0,4.59H101.7a6.82,6.82,0,0,0,6.812-6.812V56.963a6.821,6.821,0,0,0-6.812-6.815H80.5a8.237,8.237,0,0,0-16.148,2.3V86.9H48.675V21.525H123.1V86.9Zm8.456-69.967V12.217h28.92v4.718Z" transform="translate(-11.667 0)" fill="url(#linear-gradient)"/>
    <path id="Path_8" data-name="Path 8" d="M232.141,28.036H205.527a2.3,2.3,0,0,0,0,4.59h26.614a2.3,2.3,0,0,0,0-4.59Z" transform="translate(-144.611 -19.457)" fill="url(#linear-gradient)"/>
    <path id="Path_9" data-name="Path 9" d="M177.02,84.734H158.9a2.3,2.3,0,0,0-2.295,2.3V97.511a2.3,2.3,0,0,0,2.295,2.3H177.02a2.3,2.3,0,0,0,2.295-2.3V87.029A2.3,2.3,0,0,0,177.02,84.734Zm-2.3,10.482H161.193V89.324h13.532Z" transform="translate(-112.251 -58.804)" fill="url(#linear-gradient)"/>
    <path id="Path_10" data-name="Path 10" d="M408.152,114.317h13.634a2.3,2.3,0,1,0,0-4.59H408.152a2.3,2.3,0,0,0,0,4.59Z" transform="translate(-285.23 -76.149)" fill="url(#linear-gradient)"/>
    <path id="Path_11" data-name="Path 11" d="M421.786,146.581a2.3,2.3,0,1,0,0-4.59H408.152a2.3,2.3,0,0,0,0,4.59Z" transform="translate(-285.23 -98.54)" fill="url(#linear-gradient)"/>
    <path id="Path_12" data-name="Path 12" d="M44.234,114.317H57.867a2.3,2.3,0,1,0,0-4.59H44.234a2.3,2.3,0,0,0,0,4.59Z" transform="translate(-32.675 -76.149)" fill="url(#linear-gradient)"/>
    <path id="Path_13" data-name="Path 13" d="M57.867,141.991H44.234a2.3,2.3,0,0,0,0,4.59H57.867a2.3,2.3,0,1,0,0-4.59Z" transform="translate(-32.675 -98.54)" fill="url(#linear-gradient)"/>
    <path id="Path_14" data-name="Path 14" d="M279.738,101.861H255.39a2.3,2.3,0,1,0,0,4.59h24.348a2.3,2.3,0,0,0,0-4.59Z" transform="translate(-179.215 -70.69)" fill="url(#linear-gradient)"/>
  </g>
</svg>
