<svg id="journal_1_" data-name="journal (1)" xmlns="http://www.w3.org/2000/svg" xmlns:xlink="http://www.w3.org/1999/xlink" width="" height="" viewBox="0 0 189.177 189.177">
  <defs>
    <linearGradient id="linear-gradient" x1="0.5" x2="0.5" y2="1" gradientUnits="objectBoundingBox">
      <stop offset="0" stop-color="#d2d2d2"/>
      <stop offset="1" stop-color="#8d8d8d"/>
    </linearGradient>
  </defs>
  <path id="Path_2573" data-name="Path 2573" d="M174.165,42.856H119.077a15,15,0,0,0-12.242,6.339,15,15,0,0,0-12.242-6.339H64.087L32.493,11.262h0L23.836,2.6a8.891,8.891,0,0,0-12.575,0L2.6,11.261a8.891,8.891,0,0,0,0,12.575l8.654,8.655h0L27.557,48.789a15.021,15.021,0,0,0-3.064,9.08v49.546a2.771,2.771,0,0,0,5.542,0V57.868a9.476,9.476,0,0,1,1.5-5.1L58.761,79.993c.066.066.134.127.206.186a2.8,2.8,0,0,0,1.483.612c.09.009.18.013.27.013H76.885L80.4,84.321a2.763,2.763,0,0,0,1.959.811l6.111-.009a2.771,2.771,0,1,0,0-5.542H83.5l-2.7-2.7V60.722q0-.136-.013-.272a2.8,2.8,0,0,0-.613-1.483c-.058-.071-.12-.14-.186-.205L69.63,48.4H94.594a9.481,9.481,0,0,1,9.471,9.47V162.527a14.941,14.941,0,0,0-9.471-3.375H30.035V118.5a2.771,2.771,0,0,0-5.542,0v55.665a15.03,15.03,0,0,0,15.013,15.013h108.01a2.771,2.771,0,1,0,0-5.542H109.607v-6.7h52.316a2.771,2.771,0,0,0,0-5.542h-51.9a9.487,9.487,0,0,1,9.056-6.7h64.558v9.47a9.481,9.481,0,0,1-9.47,9.471H158.6a2.771,2.771,0,0,0,0,5.542h15.564a15.03,15.03,0,0,0,15.013-15.013V57.868a15.03,15.03,0,0,0-15.013-15.013ZM6.523,19.916a3.349,3.349,0,0,1,0-4.736L15.18,6.523a3.35,3.35,0,0,1,4.737,0l6.7,6.7-6.695,6.695,0,0,0,0L13.22,26.613Zm54.2,54.2L17.139,30.533,21.877,25.8,65.458,69.377Zm14.541,1.148H67.411l7.851-7.851ZM74.114,60.721l-4.737,4.737L25.8,21.876l4.737-4.737L60.976,47.582l.008.008Zm29.95,122.914H39.506a9.481,9.481,0,0,1-9.471-9.471v-9.47H94.594a9.487,9.487,0,0,1,9.056,6.7h-51.9a2.771,2.771,0,1,0,0,5.542h52.316v6.7Zm79.571-24.483H119.077a14.942,14.942,0,0,0-9.471,3.375V57.868a9.481,9.481,0,0,1,9.47-9.47h55.088a9.481,9.481,0,0,1,9.47,9.47Z" transform="translate(0 0)" fill="url(#linear-gradient)"/>
  <path id="Path_2574" data-name="Path 2574" d="M367.245,171.227h18.362a2.771,2.771,0,1,0,0-5.542H367.245a2.771,2.771,0,1,0,0,5.542Z" transform="translate(-229.806 -104.467)" fill="url(#linear-gradient)"/>
  <path id="Path_2575" data-name="Path 2575" d="M376.96,215.382H334.113a2.771,2.771,0,1,0,0,5.542H376.96a2.771,2.771,0,0,0,0-5.542Z" transform="translate(-208.916 -135.801)" fill="url(#linear-gradient)"/>
  <path id="Path_2576" data-name="Path 2576" d="M376.96,248.513H334.113a2.771,2.771,0,1,0,0,5.542H376.96a2.771,2.771,0,0,0,0-5.542Z" transform="translate(-208.916 -156.691)" fill="url(#linear-gradient)"/>
  <path id="Path_2577" data-name="Path 2577" d="M376.96,281.645H334.113a2.771,2.771,0,1,0,0,5.542H376.96a2.771,2.771,0,0,0,0-5.542Z" transform="translate(-208.916 -177.581)" fill="url(#linear-gradient)"/>
  <path id="Path_2578" data-name="Path 2578" d="M376.96,314.776H334.113a2.771,2.771,0,1,0,0,5.542H376.96a2.771,2.771,0,0,0,0-5.542Z" transform="translate(-208.916 -198.47)" fill="url(#linear-gradient)"/>
  <path id="Path_2579" data-name="Path 2579" d="M387.4,347.908H350.679a2.771,2.771,0,1,0,0,5.542H387.4a2.771,2.771,0,1,0,0-5.542Z" transform="translate(-219.36 -219.36)" fill="url(#linear-gradient)"/>
</svg>
