<svg xmlns="http://www.w3.org/2000/svg" width="43.731" height="43.735" viewBox="0 0 43.731 43.735">
  <path id="home_1_" data-name="home (1)" d="M42.083,18.587l0,0L24.647,1.152a3.934,3.934,0,0,0-5.564,0L1.66,18.575l-.018.018A3.933,3.933,0,0,0,4.26,25.3c.04,0,.081.006.122.006h.694V38.13a4.61,4.61,0,0,0,4.6,4.6H16.5a1.252,1.252,0,0,0,1.252-1.252V31.425a2.1,2.1,0,0,1,2.1-2.1h4.023a2.1,2.1,0,0,1,2.1,2.1V41.483a1.252,1.252,0,0,0,1.252,1.252h6.82a4.61,4.61,0,0,0,4.6-4.6V25.3H39.3a3.935,3.935,0,0,0,2.784-6.715ZM40.31,22.378A1.421,1.421,0,0,1,39.3,22.8H37.4a1.252,1.252,0,0,0-1.252,1.252V38.13a2.1,2.1,0,0,1-2.1,2.1H28.482V31.425a4.61,4.61,0,0,0-4.6-4.6H19.854a4.61,4.61,0,0,0-4.605,4.6v8.806H9.681a2.1,2.1,0,0,1-2.1-2.1V24.05A1.252,1.252,0,0,0,6.328,22.8H4.465l-.059,0a1.429,1.429,0,0,1-.985-2.44h0L20.855,2.922a1.429,1.429,0,0,1,2.022,0L40.3,20.35l.008.008a1.433,1.433,0,0,1,0,2.02Zm0,0" transform="translate(0 0.501)" stroke="#000" stroke-width="1" opacity="0.8"/>
</svg>
