<svg xmlns="http://www.w3.org/2000/svg" width="59.289" height="31.085" viewBox="0 0 59.289 31.085">
  <g id="Group_8939" data-name="Group 8939" transform="translate(-1164.679 -1016.677)" opacity="0.8">
    <path id="Icon_awesome-heart" data-name="Icon awesome-heart" d="M24.976,3.927a7.31,7.31,0,0,0-10.081.746L13.831,5.786,12.766,4.673A7.31,7.31,0,0,0,2.685,3.927a7.954,7.954,0,0,0-.535,11.4L12.6,26.282a1.677,1.677,0,0,0,2.447,0L25.506,15.327a7.949,7.949,0,0,0-.529-11.4Z" transform="translate(1179.998 1019.45)" fill="none" stroke="#000" stroke-width="3"/>
    <path id="Path_2066" data-name="Path 2066" d="M0,0A16.312,16.312,0,0,1,2.353,7.531,17.628,17.628,0,0,1,0,15.266" transform="translate(1173.033 1034.964) rotate(180)" fill="none" stroke="#000" stroke-width="1"/>
    <path id="Path_2067" data-name="Path 2067" d="M0,0S4.521,5.124,4.521,10.388,0,21.059,0,21.059" transform="translate(1169.7 1038.059) rotate(180)" fill="none" stroke="#000" stroke-width="1"/>
    <path id="Path_2068" data-name="Path 2068" d="M0,0A16.312,16.312,0,0,1,2.353,7.531,17.628,17.628,0,0,1,0,15.266" transform="translate(1215.544 1019.812)" fill="none" stroke="#000" stroke-width="1"/>
    <path id="Path_2069" data-name="Path 2069" d="M0,0S4.584,5.419,4.584,10.987,0,22.273,0,22.273" transform="translate(1218.885 1017)" fill="none" stroke="#000" stroke-width="1"/>
  </g>
</svg>
