<svg id="box" xmlns="http://www.w3.org/2000/svg" viewBox="0 0 189.177 189.177">
  <path id="Path_24" data-name="Path 24" d="M26.551,233.932l17.788,8.892v22.1a3.7,3.7,0,0,0,3.695,3.695H87.2a3.7,3.7,0,0,0,3.695-3.695V214.474A21.87,21.87,0,0,0,71.167,192.64c-.044-.012-15.629-2.445-22.86-9.677l-8.3-8.294a14.679,14.679,0,0,0-10.449-4.33V140.78A14.779,14.779,0,1,0,0,140.78v50.191a48.037,48.037,0,0,0,26.551,42.962ZM7.39,140.78a7.39,7.39,0,0,1,14.779,0v31.54a14.776,14.776,0,0,0-3.06,23.248l18.921,18.925a3.695,3.695,0,1,0,5.226-5.225L24.335,190.342a7.389,7.389,0,0,1,2.76-12.193h0a7.381,7.381,0,0,1,7.685,1.747l8.3,8.295c8.567,8.566,27.284,11.79,27.321,11.8a14.51,14.51,0,0,1,13.1,14.484v46.759H51.728V240.541a3.7,3.7,0,0,0-2.043-3.3l-19.83-9.913A40.425,40.425,0,0,1,7.39,190.971Z" transform="translate(0 -79.445)"/>
  <path id="Path_25" data-name="Path 25" d="M129.695,90.894h88.677a3.7,3.7,0,0,0,3.695-3.695V3.695A3.7,3.7,0,0,0,218.372,0H129.695A3.7,3.7,0,0,0,126,3.695V87.2A3.7,3.7,0,0,0,129.695,90.894Zm33.254-83.5h22.169V27.3l-9.6-4.75a3.693,3.693,0,0,0-3.3.014l-9.267,4.681Zm-29.559,0h22.169V33.254a3.695,3.695,0,0,0,5.361,3.3L173.9,30l13.275,6.57a3.695,3.695,0,0,0,5.333-3.312V7.39h22.169V83.5H133.39Z" transform="translate(-79.445)"/>
  <path id="Path_26" data-name="Path 26" d="M291.864,176H269.695a3.695,3.695,0,1,0,0,7.39h22.169a3.695,3.695,0,0,0,0-7.39Z" transform="translate(-167.716 -110.97)"/>
  <circle id="Ellipse_1" data-name="Ellipse 1" cx="4.013" cy="4.013" r="4.013" transform="translate(166.814 142.739)"/>
  <path id="Path_27" data-name="Path 27" d="M342.114,126a14.8,14.8,0,0,0-14.78,14.779v29.559a14.68,14.68,0,0,0-10.449,4.329l-8.3,8.3c-4.545,4.545-16.058,8.992-22.586,9.646l-.247.027A21.877,21.877,0,0,0,266,214.474v50.453a3.7,3.7,0,0,0,3.695,3.695H308.86a3.7,3.7,0,0,0,3.695-3.695v-22.1l12.093-6.046a3.7,3.7,0,0,0-3.3-6.61l-14.136,7.066a3.7,3.7,0,0,0-2.042,3.305v20.691H273.39V214.474a14.517,14.517,0,0,1,13.127-14.487l.247-.027c8.015-.8,21.284-6.009,27.047-11.771l8.3-8.3a7.383,7.383,0,0,1,7.684-1.746h0l0,0a7.4,7.4,0,0,1,2.76,12.194l-18.921,18.925a3.695,3.695,0,1,0,5.226,5.225l18.922-18.925a14.777,14.777,0,0,0-3.06-23.248v-31.54a7.39,7.39,0,1,1,14.78,0v50.191a40.754,40.754,0,0,1-4.934,19.408,3.695,3.695,0,1,0,6.492,3.53,48.167,48.167,0,0,0,5.831-22.938V140.779A14.8,14.8,0,0,0,342.114,126Z" transform="translate(-167.716 -79.445)"/>
</svg>
