<svg xmlns="http://www.w3.org/2000/svg" viewBox="0 0 210.018 154.178">
  <g id="Group_9243" data-name="Group 9243" transform="translate(0 0)">
    <g id="Group_1255" data-name="Group 1255" transform="translate(161.103 65.788)">
      <g id="Group_1254" data-name="Group 1254" transform="translate(0 0)">
        <path id="Path_2566" data-name="Path 2566" d="M416.94,232.063c-7.147-3.573-20.546-3.614-21.112-3.614a3.077,3.077,0,0,0,0,6.153c3.458,0,13.5.533,18.361,2.965a3.077,3.077,0,1,0,2.752-5.5Z" transform="translate(-392.751 -228.449)"/>
      </g>
    </g>
    <g id="Group_1257" data-name="Group 1257">
      <g id="Group_1256" data-name="Group 1256">
        <path id="Path_2567" data-name="Path 2567" d="M200.63,181.269l-12.706-3.63a1.29,1.29,0,0,1-.932-1.235v-4.241a23.124,23.124,0,0,0,2.941-2.412,22.632,22.632,0,0,0,6.927-16.373v-5.852l1.229-2.457a19.627,19.627,0,0,0,2.061-8.731V120.483a3.077,3.077,0,0,0-3.076-3.076h-29.6a19.546,19.546,0,0,0-19.523,19.523v.183a16.318,16.318,0,0,0,1.714,7.26l1.576,3.151v5.025a24,24,0,0,0,9.868,19.408V176.4c0,.685,0,.969-2.54,1.7l-6.2,1.771-17.934-6.521a3.073,3.073,0,0,0-.838-2.355l-5.731-6.021V154.865c.606-.5,1.2-1.012,1.782-1.554a36.107,36.107,0,0,0,11.376-26.249V118.99a35.561,35.561,0,0,0,3.289-14.954V71.142a3.077,3.077,0,0,0-3.076-3.076H95.18A29.425,29.425,0,0,0,65.788,97.457v6.579a35.561,35.561,0,0,0,3.289,14.954v6.945a37.592,37.592,0,0,0,13.158,28.691v10.345L76.5,170.993a3.073,3.073,0,0,0-.838,2.355l-18.928,6.883a16.134,16.134,0,0,0-3.8,1.993l-2.972-1.486c8.848-3.851,11.651-9.268,11.785-9.537a3.076,3.076,0,0,0,0-2.752c-2.218-4.436-2.487-12.566-2.7-19.1-.072-2.175-.14-4.229-.27-6.059-1.049-14.756-12.267-25.884-26.094-25.884S7.635,128.534,6.586,143.291c-.13,1.83-.2,3.885-.27,6.06-.216,6.532-.485,14.662-2.7,19.1a3.076,3.076,0,0,0,0,2.752c.135.269,2.932,5.675,11.8,9.53l-8.256,4.128A12.878,12.878,0,0,0,0,196.437v22.728a3.076,3.076,0,0,0,6.153,0V196.437a6.755,6.755,0,0,1,3.754-6.075l10.281-5.14,3.576,3.4a12.938,12.938,0,0,0,17.834,0l3.576-3.4,3.352,1.676a16.2,16.2,0,0,0-2.474,8.589v23.678a3.076,3.076,0,0,0,6.153,0V195.488a10.112,10.112,0,0,1,6.636-9.474L78.8,178.757,87.1,191.219a6.342,6.342,0,0,0,4.669,2.8q.319.031.635.031a6.341,6.341,0,0,0,4.494-1.865l5.068-5.068v32.046a3.076,3.076,0,0,0,6.153,0V187.121l5.068,5.068a6.338,6.338,0,0,0,4.494,1.865q.316,0,.634-.031a6.342,6.342,0,0,0,4.67-2.8l8.308-12.462,19.956,7.257a10.113,10.113,0,0,1,6.636,9.474v23.678a3.076,3.076,0,1,0,6.153,0V195.489a16.263,16.263,0,0,0-4.55-11.256l.76-.217a16.862,16.862,0,0,0,2.863-1.034l7.855,7.855v28.33a3.076,3.076,0,1,0,6.153,0v-28.33l7.8-7.8a7.316,7.316,0,0,0,1.309.52l12.706,3.63a6.821,6.821,0,0,1,4.926,6.531v25.45a3.076,3.076,0,1,0,6.153,0v-25.45A13,13,0,0,0,200.63,181.269ZM19.736,175.835C13.982,173.764,11.1,171,9.863,169.5a33.911,33.911,0,0,0,1.754-7.367,22.94,22.94,0,0,0,8.12,10.018Zm17.624,8.326a6.789,6.789,0,0,1-9.358,0l-2.861-2.719a6.365,6.365,0,0,0,.748-3v-3.279a22.878,22.878,0,0,0,13.583,0v3.277a6.365,6.365,0,0,0,.748,3.005Zm-4.678-14.123a16.679,16.679,0,0,1-16.66-16.66,3.058,3.058,0,0,0-3.581-3.031c.009-.265.018-.53.027-.792.069-2.115.135-4.113.256-5.827a22.84,22.84,0,0,1,6.22-14.344,19.114,19.114,0,0,1,27.475,0,22.84,22.84,0,0,1,6.22,14.344c.121,1.713.188,3.711.258,5.826.006.182.012.366.018.549A27.643,27.643,0,0,0,37.72,139a38.612,38.612,0,0,0-11.7-1.854,3.077,3.077,0,0,0-2.129.94l-5.551,5.757a3.076,3.076,0,0,0,4.429,4.271l4.619-4.79c3.978.194,16.774,1.683,21.751,12.642A16.62,16.62,0,0,1,32.682,170.038Zm12.943,5.807v-3.669a22.756,22.756,0,0,0,8.122-10.029A33.869,33.869,0,0,0,55.5,169.5C54.274,170.99,51.374,173.775,45.625,175.845Zm29.605-49.91V118.3a3.077,3.077,0,0,0-.306-1.338,29.51,29.51,0,0,1-2.983-12.928V97.458A23.265,23.265,0,0,1,95.18,74.219h42.975v29.818a29.509,29.509,0,0,1-2.983,12.928,3.077,3.077,0,0,0-.306,1.338v8.76a29.535,29.535,0,0,1-9.431,21.759,30.633,30.633,0,0,1-2.362,2l-.053.039a29.581,29.581,0,0,1-19.963,5.956C87.453,155.806,75.23,142.241,75.23,125.935Zm17.322,61.9a.193.193,0,0,1-.171.061.2.2,0,0,1-.156-.094l-9.568-14.352,3.079-3.235,14.515,9.921Zm12.5-11.872-16.66-11.388v-5.743a34.639,34.639,0,0,0,14.271,4.12q1.216.079,2.421.078a35.635,35.635,0,0,0,16.628-4.075v5.62Zm12.823,11.84a.2.2,0,0,1-.156.094.19.19,0,0,1-.171-.061l-7.7-7.7,14.515-9.922,3.079,3.235Zm56.176-2.6-6.981-6.981a8.441,8.441,0,0,0,.19-1.827v-1.3a21.573,21.573,0,0,0,6.092,1.076c.237.007.472.011.708.011a22.851,22.851,0,0,0,6.783-1.026V176.4a7.354,7.354,0,0,0,.222,1.793Zm11.6-19.875a16.535,16.535,0,0,1-12.116,4.695c-8.9-.267-16.146-8.109-16.146-17.479V146.8a3.073,3.073,0,0,0-.325-1.376l-1.9-3.8a10.134,10.134,0,0,1-1.064-4.508v-.183a13.386,13.386,0,0,1,13.371-13.371H194v12.777a13.442,13.442,0,0,1-1.411,5.98l-1.553,3.106a3.075,3.075,0,0,0-.325,1.376v6.579A16.529,16.529,0,0,1,185.649,165.335Z" transform="translate(0 -68.066)"/>
      </g>
    </g>
    <g id="Group_1263" data-name="Group 1263" transform="translate(78.946 27.949)">
      <g id="Group_1262" data-name="Group 1262" transform="translate(0 0)">
        <path id="Path_2570" data-name="Path 2570" d="M243.763,145.339c-11.635-11.635-35.98-9.411-45.907-7.915a6.316,6.316,0,0,0-5.4,6.292V150.8a3.076,3.076,0,1,0,6.153,0v-7.088a.2.2,0,0,1,.161-.208,97.2,97.2,0,0,1,19.987-.976c9.594.639,16.542,3.047,20.653,7.158a3.076,3.076,0,0,0,4.351-4.351Z" transform="translate(-192.46 -136.202)"/>
      </g>
    </g>
    <g id="Group_1265" data-name="Group 1265" transform="translate(65.788 134.866)">
      <g id="Group_1264" data-name="Group 1264">
        <path id="Path_2571" data-name="Path 2571" d="M163.46,396.853a3.077,3.077,0,0,0-3.076,3.077v13.158a3.076,3.076,0,0,0,6.153,0V399.929A3.077,3.077,0,0,0,163.46,396.853Z" transform="translate(-160.384 -396.853)"/>
      </g>
    </g>
    <g id="Group_1267" data-name="Group 1267" transform="translate(138.155 134.866)">
      <g id="Group_1266" data-name="Group 1266" transform="translate(0)">
        <path id="Path_2572" data-name="Path 2572" d="M339.882,396.853a3.077,3.077,0,0,0-3.077,3.077v13.158a3.076,3.076,0,1,0,6.153,0V399.929A3.077,3.077,0,0,0,339.882,396.853Z" transform="translate(-336.806 -396.853)"/>
      </g>
    </g>
    <g id="Group_1259" data-name="Group 1259" transform="translate(190.708 128.287)">
      <g id="Group_1258" data-name="Group 1258" transform="translate(0 0)">
        <path id="Path_2568" data-name="Path 2568" d="M468,380.814a3.077,3.077,0,0,0-3.076,3.077v19.736a3.076,3.076,0,0,0,6.153,0V383.89A3.077,3.077,0,0,0,468,380.814Z" transform="translate(-464.923 -380.814)"/>
      </g>
    </g>
    <g id="Group_1261" data-name="Group 1261" transform="translate(13.158 132.353)">
      <g id="Group_1260" data-name="Group 1260" transform="translate(0 0)">
        <path id="Path_2569" data-name="Path 2569" d="M35.153,390.728a3.077,3.077,0,0,0-3.076,3.077v15.669a3.076,3.076,0,1,0,6.153,0V393.8A3.077,3.077,0,0,0,35.153,390.728Z" transform="translate(-32.077 -390.728)"/>
      </g>
    </g>
  </g>
</svg>
